# Blender v2.75 (sub 0) OBJ File: ''
# www.blender.org
mtllib cone.mtl
o Cone
v 0.000000 -1.000000 -1.000000
v 0.382683 -1.000000 -0.923880
v 0.707107 -1.000000 -0.707107
v 0.923880 -1.000000 -0.382683
v 1.000000 -1.000000 0.000000
v 0.000000 1.000000 0.000000
v 0.923880 -1.000000 0.382684
v 0.707107 -1.000000 0.707107
v 0.382683 -1.000000 0.923880
v 0.000000 -1.000000 1.000000
v -0.382683 -1.000000 0.923880
v -0.707107 -1.000000 0.707107
v -0.923880 -1.000000 0.382684
v -1.000000 -1.000000 -0.000000
v -0.923879 -1.000000 -0.382684
v -0.707107 -1.000000 -0.707107
v -0.382683 -1.000000 -0.923880
vn -0.498800 0.440300 -0.746500
vn 0.175200 0.440300 -0.880600
vn -0.746500 0.440300 -0.498800
vn -0.880600 0.440300 -0.175200
vn -0.880600 0.440300 0.175200
vn -0.746500 0.440300 0.498800
vn -0.498800 0.440300 0.746500
vn -0.175200 0.440300 0.880600
vn 0.175200 0.440300 0.880600
vn 0.498800 0.440300 0.746500
vn 0.746500 0.440300 0.498800
vn 0.880600 0.440300 0.175200
vn 0.880600 0.440300 -0.175200
vn 0.746500 0.440300 -0.498800
vn -0.175200 0.440300 -0.880600
vn 0.498800 0.440300 -0.746500
vn 0.000000 -1.000000 -0.000000
usemtl None
s off
f 16//1 6//1 17//1
f 1//2 6//2 2//2
f 15//3 6//3 16//3
f 14//4 6//4 15//4
f 13//5 6//5 14//5
f 12//6 6//6 13//6
f 11//7 6//7 12//7
f 10//8 6//8 11//8
f 9//9 6//9 10//9
f 8//10 6//10 9//10
f 7//11 6//11 8//11
f 5//12 6//12 7//12
f 4//13 6//13 5//13
f 3//14 6//14 4//14
f 17//15 6//15 1//15
f 2//16 6//16 3//16
f 1//17 2//17 3//17 4//17 5//17 7//17 8//17 9//17 10//17 11//17 12//17 13//17 14//17 15//17 16//17 17//17
